HIERARCHY
ROOT Hips
{
  OFFSET -2.80573 93.4123 36.3667
  CHANNELS 6 Xposition Yposition Zposition Zrotation Xrotation Yrotation
  JOINT ToSpine
  {
    OFFSET -2.69724 7.43032 -0.144315
    CHANNELS 3 Zrotation Xrotation Yrotation
    JOINT Spine
    {
      OFFSET -0.0310711 10.7595 1.96963
      CHANNELS 3 Zrotation Xrotation Yrotation
      JOINT Spine1
      {
        OFFSET 13.1342 3.43533 0.764692
        CHANNELS 3 Zrotation Xrotation Yrotation
        JOINT Neck
        {
          OFFSET 29.8703 7.82586 -0.130764
          CHANNELS 3 Zrotation Xrotation Yrotation
          JOINT Head
          {
            OFFSET 9.52751 0.295786 -0.907742
            CHANNELS 3 Zrotation Xrotation Yrotation
            End Site
            {
              OFFSET 16.4037 0.713936 2.7358
            }
          }
        }
        JOINT LeftShoulder
        {
          OFFSET 27.5574 4.95586 2.47156
          CHANNELS 3 Zrotation Xrotation Yrotation
          JOINT LeftArm
          {
            OFFSET 1.20734 -0.998971 20.1238
            CHANNELS 3 Zrotation Xrotation Yrotation
            JOINT LeftForeArm
            {
              OFFSET 26.8049 -0.0536703 -0.155908
              CHANNELS 3 Zrotation Xrotation Yrotation
              JOINT LeftHand
              {
                OFFSET 26.6817 0 0.320147
                CHANNELS 3 Zrotation Xrotation Yrotation
                End Site
                {
                  OFFSET 18.6119 0 0.382219
                }
              }
            }
          }
        }
        JOINT RightShoulder
        {
          OFFSET 27.5927 4.71444 -2.65209
          CHANNELS 3 Zrotation Xrotation Yrotation
          JOINT RightArm
          {
            OFFSET 2.83739 -1.17114 -18.7564
            CHANNELS 3 Zrotation Xrotation Yrotation
            JOINT RightForeArm
            {
              OFFSET 28.839 -0.0548439 1.22491
              CHANNELS 3 Zrotation Xrotation Yrotation
              JOINT RightHand
              {
                OFFSET 26.5114 0 -0.101894
                CHANNELS 3 Zrotation Xrotation Yrotation
                End Site
                {
                  OFFSET 18.2168 0 0
                }
              }
            }
          }
        }
      }
    }
  }
  JOINT LeftUpLeg
  {
    OFFSET -4.76168 -1.9167 -10.2353
    CHANNELS 3 Zrotation Xrotation Yrotation
    JOINT LeftLeg
    {
      OFFSET 2.55951 -42.0585 -8.02213
      CHANNELS 3 Zrotation Xrotation Yrotation
      JOINT LeftFoot
      {
        OFFSET 3.16357 -42.5282 -3.95426
        CHANNELS 3 Zrotation Xrotation Yrotation
        JOINT LeftToeBase
        {
          OFFSET 0.346054 -6.02161 12.8035
          CHANNELS 3 Zrotation Xrotation Yrotation
          End Site
          {
            OFFSET 0.134235 -1.35082 5.13018
          }
        }
      }
    }
  }
  JOINT RightUpLeg
  {
    OFFSET -4.94151 -1.41743 10.6446
    CHANNELS 3 Zrotation Xrotation Yrotation
    JOINT RightLeg
    {
      OFFSET -2.56294 -42.0364 -7.94377
      CHANNELS 3 Zrotation Xrotation Yrotation
      JOINT RightFoot
      {
        OFFSET -3.0952 -42.555 -4.02241
        CHANNELS 3 Zrotation Xrotation Yrotation
        JOINT RightToeBase
        {
          OFFSET -0.0828122 -6.13587 12.8035
          CHANNELS 3 Zrotation Xrotation Yrotation
          End Site
          {
            OFFSET -0.131328 -1.35082 5.13018
          }
        }
      }
    }
  }
}
MOTION
Frames:	15
Frame Time:	0.0333333
25.7222 91.8611 29.6483 -74.8922 14.7721 178.883 -70.1915 0 88.8779 84.3523 72.861 2.41854 2.7384 20.3999 6.37135 -114.141 28.5685 153.579 -168.894 75.2347 -158.355 0.750089 -13.3396 -18.8343 -48.8661 33.067 -147.068 26.3953 -5.08982 -99.374 0.420957 0.000576052 0.35866 -1.70326 6.91006 39.4755 -139.134 -17.9991 96.2966 18.2597 -2.65284 81.7911 1.29448 0.0518176 2.98898 -45.1204 15.9463 103.394 -4.09655 52.9523 -5.05886 2.00779 -19.4102 -1.56469 1.28663 -9.00687 25.2967 -41.7775 -14.2624 78.2404 2.44215 34.234 9.74881 0.957402 -0.226242 0.0445451 2.27366 -13.6559 -12.4396 
25.595 92.0099 30.3737 -75.485 12.2655 179.365 -70.1915 0 88.8779 84.7296 73.0423 2.15443 2.96624 20.7191 5.89646 -113.23 28.522 152.89 -171.005 75.5465 -156.139 0.753023 -13.403 -18.5273 -49.2218 32.5426 -147.034 26.7624 -5.08651 -99.2126 0.420957 0.000576052 0.35866 -1.70962 7.01431 39.1687 -139.537 -17.474 96.0475 18.026 -2.47838 82.2047 1.20658 0.0475281 2.77758 -45.3607 14.4073 102.295 -3.94008 52.2352 -4.91552 1.86088 -18.5996 -1.51926 2.2606 -9.95151 23.2404 -42.1323 -15.0033 78.7806 2.12228 35.0713 6.71318 -0.321407 2.01378 0.0319061 2.18768 -18.7894 -16.7321 
25.4746 92.0783 30.8694 -75.827 9.63666 179.73 -70.1915 0 88.8779 84.3465 73.0729 2.38933 3.28142 20.8015 5.54174 -112.898 28.4219 152.59 -170.453 75.6244 -156.306 0.74436 -13.653 -18.0744 -49.5904 32.4832 -146.874 26.262 -5.05236 -99.3597 0.420957 0.000576052 0.35866 -1.65249 7.07118 38.151 -140.651 -18.5236 95.1691 19.2283 -2.45436 82.7692 1.33228 0.046768 2.89943 -45.3311 13.1574 101.495 -4.00268 51.9286 -5.71517 1.36507 -19.4139 -1.59262 1.20141 -8.65367 23.8277 -41.0864 -15.6255 79.7884 1.70208 37.9346 1.50045 -1.29941 2.30881 0.164327 2.33167 -16.7859 -17.14 
25.2764 92.1002 31.2268 -75.886 7.37607 179.575 -70.1915 0 88.8779 84.0151 73.1727 1.68781 2.86075 20.6467 6.01335 -113.503 28.7157 153.324 -171.349 75.5215 -155.985 0.79027 -13.1362 -18.0397 -49.7032 32.6561 -146.94 25.598 -4.96234 -99.4727 0.420957 0.000576052 0.35866 -1.48477 6.77297 36.8139 -140.016 -19.7529 95.3019 19.4138 -2.3168 83.2149 1.32124 0.048526 2.83846 -45.3648 11.9647 101.306 -4.00968 51.3858 -6.43286 1.00177 -18.8679 -1.57014 1.64001 -9.10457 23.0996 -39.0506 -16.1081 81.2824 1.50431 41.1741 -2.49546 -4.55835 2.30904 0.652588 2.23277 -15.0161 -13.6728 
25.0196 92.1885 31.3054 -75.7203 5.53021 179.641 -70.1915 0 88.8779 83.7501 73.2244 1.91658 2.59802 20.7192 5.36331 -113.79 28.5251 153.676 -171.254 75.1827 -155.901 0.796157 -13.2035 -17.6076 -50.1561 32.7478 -146.57 25.4681 -4.96221 -99.5303 0.420957 0.000576052 0.35866 -1.37439 6.48901 36.2324 -139.163 -20.2814 95.614 18.6905 -2.11942 83.5079 1.29407 0.0501144 2.91976 -45.166 11.1638 100.938 -4.1187 51.0513 -7.62772 1.07865 -19.0365 -1.57759 0.987228 -8.3479 23.6798 -37.9886 -15.0195 83.7833 1.52983 40.7576 -1.58079 -8.2145 2.14616 1.1985 2.23625 -16.6936 -10.5473 
24.6425 92.3612 31.261 -76.0535 3.68661 -179.972 -70.1915 0 88.8779 85.0573 73.3223 0.396516 2.43087 20.7172 5.42282 -113.943 28.4966 154.087 -170.26 75.0093 -156.325 0.75414 -13.469 -18.2861 -51.0942 32.1858 -145.801 25.337 -4.98747 -99.6402 0.420957 0.000576052 0.35866 -1.46788 6.97561 35.9515 -138.839 -19.6122 96.1171 19.2965 -2.14087 83.6515 1.1497 0.0378884 2.38032 -45.6576 10.3937 99.9948 -4.01599 50.2764 -7.90676 1.23075 -18.1128 -1.50639 1.19698 -8.27152 21.8374 -38.5384 -13.0625 86.8765 1.9099 37.4991 3.57858 -5.67615 1.11739 0.840997 2.25729 -17.2104 -15.6456 
24.2015 92.6061 30.9907 -76.001 1.80379 -179.694 -70.1915 0 88.8779 85.5558 73.3082 -0.292845 2.30164 20.6844 5.19026 -114.587 28.7557 154.853 -173.242 74.8218 -154.025 0.775153 -13.2636 -18.1869 -51.5114 31.8071 -146.262 25.1495 -4.80579 -99.3563 0.420957 0.000576052 0.35866 -1.4679 7.23279 35.1271 -138.809 -19.6633 95.6808 17.9203 -1.77306 84.2425 0.969663 0.0286335 2.08979 -45.9178 9.58961 98.8969 -3.98272 49.1545 -9.06546 1.82576 -15.3003 -1.3018 3.16883 -10.8817 21.1947 -39.0242 -12.04 87.7084 1.37657 33.1401 7.55397 -3.57997 1.7672 0.531361 2.30848 -16.431 -15.189 
23.6757 92.8048 30.4498 -75.8074 -0.219307 -179.509 -70.1915 0 88.8779 85.7998 73.2315 -0.834685 1.91444 20.6068 4.78513 -114.633 28.7689 155.182 -175.095 74.6582 -152.524 0.757076 -13.4995 -18.0966 -51.2924 32.4024 -146.848 25.7856 -4.70261 -98.8762 0.420957 0.000576052 0.35866 -1.49515 7.43351 34.9275 -138.795 -19.6737 95.4646 18.9068 -1.86591 84.2829 1.03792 0.0250249 2.12899 -46.1744 9.08546 98.2327 -3.95255 48.0503 -10.2103 2.23316 -14.0401 -1.21843 3.57678 -11.3704 20.7341 -39.281 -11.759 86.373 0.344438 29.774 12.923 -2.73549 3.64007 0.305425 2.22919 -15.5082 -12.3769 
23.0361 93.0432 29.7255 -75.5718 -2.5956 -179.17 -70.1915 0 88.8779 84.906 72.9756 -0.193595 2.05979 20.4834 4.20628 -114.258 28.4119 154.719 -173.614 74.5904 -153.385 0.779335 -13.3689 -17.7169 -51.1246 32.51 -147.502 27.0044 -4.78011 -98.5369 0.420957 0.000576052 0.35866 -1.49559 7.33018 35.2604 -138.83 -19.3451 95.8985 19.5464 -2.03483 84.0175 1.10842 0.0215139 2.22199 -46.432 8.71816 97.3688 -3.95137 46.8034 -11.773 2.24098 -12.9738 -1.15055 3.78387 -11.6554 20.7995 -39.7601 -11.4965 84.4973 -0.0953058 27.6988 22.6163 -0.52933 6.58255 -0.262372 2.28105 -16.6185 -15.978 
22.2888 93.3369 28.781 -75.1582 -5.27138 -178.646 -70.1915 0 88.8779 82.8491 72.667 1.59447 2.55657 20.2912 3.81135 -114.01 28.4141 154.571 -173.958 74.6594 -152.447 0.773325 -13.4719 -17.6281 -51.4181 32.251 -148.066 26.528 -4.60264 -98.3834 0.420957 0.000576052 0.35866 -1.48795 7.2673 35.3348 -139.066 -18.9364 95.6818 19.31 -1.94739 84.19 1.11618 0.0181626 2.28378 -46.5824 8.11495 95.5698 -4.01113 45.3143 -14.5451 1.772 -9.8388 -0.944514 5.93165 -14.8018 23.18 -39.9085 -10.9096 85.2179 -0.347084 27.7844 24.5841 3.29532 7.22338 -1.04222 2.09291 -12.1173 -10.9285 
21.4898 93.5311 27.5805 -74.9429 -8.40902 -178.26 -70.1915 0 88.8779 82.2935 72.3425 1.08937 2.43332 19.6997 4.20055 -114.62 29.0619 155.319 -177.126 74.7817 -149.866 0.743691 -13.6659 -18.0601 -51.509 31.9843 -148.663 26.0515 -4.54282 -98.453 0.420957 0.000576052 0.35866 -1.39318 7.15762 34.3721 -139.531 -19.3482 94.305 19.5274 -1.70203 84.9279 1.14099 0.0150754 2.31968 -46.9624 7.39165 93.7398 -4.2185 43.7453 -18.8699 1.72455 -5.74956 -0.685046 9.01611 -18.6129 27.9478 -40.0504 -10.2585 88.3782 0.107295 29.6533 14.3123 1.74965 5.11457 -0.547129 1.34659 -8.21903 -4.42156 
20.5714 93.7199 26.2642 -74.728 -11.3631 -177.66 -70.1915 0 88.8779 82.5359 71.9005 0.561485 2.43764 19.2623 3.8781 -115.44 29.4644 155.864 -178.125 74.8211 -149.794 0.772697 -13.3578 -17.9822 -51.6678 31.7067 -149.17 25.361 -4.47227 -98.5891 0.420957 0.000576052 0.35866 -1.36467 7.11852 34.0934 -139.977 -19.1997 93.1725 19.7126 -1.49356 85.5506 1.15072 0.0122102 2.31802 -47.4155 7.33295 92.281 -4.11486 42.0503 -20.4144 1.90148 -4.3138 -0.595444 9.31445 -18.9699 27.9677 -41.075 -10.6894 88.0031 0.358012 30.0646 9.56091 -0.958871 4.15614 -0.0152565 1.198 -9.54523 -0.345191 
19.6826 93.9668 25.0195 -74.0708 -13.8846 -176.825 -70.1915 0 88.8779 81.113 71.6476 2.58496 2.81854 19.3896 3.0751 -115.18 29.4234 155.438 -176.664 75.0231 -150.871 0.730734 -13.8112 -18.0696 -51.9607 31.6754 -149.404 24.3879 -4.33309 -98.7057 0.420957 0.000576052 0.35866 -1.38357 6.99416 34.716 -140.506 -17.4193 92.4462 19.4533 -1.28537 86.0749 1.13454 0.00954855 2.31905 -47.5868 7.50203 90.8302 -3.92783 40.1212 -20.2145 1.28873 -4.13445 -0.533122 8.57592 -18.3366 26.1869 -42.3065 -11.2033 85.4845 0.207623 29.412 9.87866 -1.22073 2.48113 0.136369 1.21215 -9.29268 -1.03054 
18.8631 93.9797 23.8018 -73.384 -15.633 -176.09 -70.1915 0 88.8779 80.6949 71.5512 3.62169 2.70075 19.55 2.70157 -115.174 29.3923 155.499 -176.359 74.9915 -151.317 0.713944 -14.0422 -17.9732 -52.0418 31.761 -149.901 24.5844 -4.22428 -98.3942 0.420957 0.000576052 0.35866 -1.4055 6.98949 35.0331 -141.1 -16.1898 91.9736 19.3383 -1.16213 86.4041 1.11744 0.007113 2.29163 -47.5603 8.52838 90.7123 -3.23655 38.4142 -14.7308 1.02648 -8.43573 -0.826632 4.6458 -12.3225 17.0388 -42.4129 -11.3223 84.2793 0.349187 30.3924 7.74764 -1.12096 -0.0642496 0.308324 0.624043 -6.93618 1.5436 
18.3445 94.0934 22.5599 -72.8584 -16.6992 -175.548 -70.1915 0 88.8779 82.5416 71.6228 1.95636 1.93587 19.601 3.00399 -115.708 29.5609 156.038 -177.199 74.8677 -151.024 0.692572 -14.108 -18.4175 -52.5532 31.9345 -150.046 24.6631 -4.09915 -98.0998 0.420957 0.000576052 0.35866 -1.40303 6.89418 35.2849 -141.411 -15.6337 92.2552 19.31 -1.20457 86.2865 1.11929 0.00491994 2.30083 -47.3963 10.0489 91.3426 -3.14806 37.6181 -14.1559 -0.0288279 -9.74826 -0.855409 4.69662 -12.7587 19.4375 -42.2036 -10.9215 83.6255 0.538861 31.1283 7.55586 0.143416 -1.94492 0.27155 0.604547 -4.45023 -0.551095 
